<svg id="eWpHvzSa4Kf1" xmlns="http://www.w3.org/2000/svg" xmlns:xlink="http://www.w3.org/1999/xlink" viewBox="0 0 300 300" shape-rendering="geometricPrecision" text-rendering="geometricPrecision"><defs><filter id="eWpHvzSa4Kf5-filter" x="-150%" width="400%" y="-150%" height="400%"><feGaussianBlur id="eWpHvzSa4Kf5-filter-blur-0" stdDeviation="0,0" result="result"/></filter></defs><path d="M164.5255,57.133635c34.8973-7.464319,37.766301-8.231117,54.712718.484183c9.199484,13.557134,13.049842,20.525962,9.199484,31.471917-2.156945,19.274964-25.661717,36.579013-45.513235,41.639768c20.436865,20.933369,45.513235,47.934151,59.554552,59.070368c2.410206,1.863061,8.735946,8.079112,14.843256,10.696438-1.13752,1.653265-46.91066-.834875-58.888807,0-23.735363-36.325163-21.732268-50.29308-33.907968-55.725489-6.602368-.150869-14.496979.237641-20.819883,0v-26.630084c20.819883,0,56.277917-13.24172,58.586184-29.051001c0-22.756617-22.272433-17.914783-19.367334-17.914783-54.746832,3.088598-79.713869,3.569089-78.438254,4.783464Q129.6282,64.597954,164.5255,57.133635Z" transform="matrix(1.413211 0 0 1.653626-93.641577-58.923628)" fill="#530000" stroke="#530000" stroke-width="0.6"/><path d="M132.085216,118.624919L83.666882,145.255003h19.367334v45.029051L81.730148,202.87282L150,202.872819l-17.914784-12.588768v-71.659132Z" transform="matrix(1.413211 0 0 1.611819-104.258543-53.516839)" fill="#530000" stroke="#530000" stroke-width="0.6"/><path d="M132.085216,118.624919L83.666882,145.255003h19.367334v45.029051L81.730148,202.87282L150,202.872819l-17.914784-12.588768v-71.659132Z" transform="matrix(1.413211 0 0 1.611819-90.819476-53.516839)" fill="#810000" stroke="#810000" stroke-width="0.6"/><path d="M164.5255,57.133635c36.29322-8.105636,40.607335-9.645211,54.61467.484183c10.669941,12.527026,13.159984,20.523895,9.297532,31.471917-2.156945,19.274964-25.661717,36.579013-45.513235,41.639768c20.436865,20.933369,45.513235,47.934151,59.554552,59.070368c2.410206,1.863061,8.735946,8.079112,14.843256,10.696438-1.13752,1.653265-46.91066-.834875-58.888807,0-23.735363-36.325163-21.732268-50.29308-33.907968-55.725489-6.602368-.150869-14.496979.237641-20.819883,0v-26.630084c20.819883,0,56.277917-13.24172,58.586184-29.051001c0-22.756617-22.272433-17.914783-19.367334-17.914783-57.406739,3.239456-99.188933,5.343349-93.372392,4.783464.276156-.026582-.449768.044452-.523627.058369c26.260587-7.193872,51.311726-13.488255,75.497052-18.88315Z" transform="matrix(1.413211 0 0 1.653626-71.796469-58.923628)" filter="url(#eWpHvzSa4Kf5-filter)" fill="#810000" stroke="#810000" stroke-width="0.6" stroke-linecap="round"/></svg>
